<svg xmlns="http://www.w3.org/2000/svg" viewBox="0 0 1200 220" preserveAspectRatio="none"><rect x="2.0" y="50.5" width="6.0" height="118.9" rx="3.0"/><rect x="12.0" y="55.2" width="6.0" height="109.5" rx="3.0"/><rect x="22.0" y="32.8" width="6.0" height="154.4" rx="3.0"/><rect x="32.0" y="55.0" width="6.0" height="110.0" rx="3.0"/><rect x="42.0" y="33.3" width="6.0" height="153.4" rx="3.0"/><rect x="52.0" y="39.0" width="6.0" height="142.0" rx="3.0"/><rect x="62.0" y="51.5" width="6.0" height="116.9" rx="3.0"/><rect x="72.0" y="29.5" width="6.0" height="161.0" rx="3.0"/><rect x="82.0" y="50.4" width="6.0" height="119.2" rx="3.0"/><rect x="92.0" y="30.6" width="6.0" height="158.8" rx="3.0"/><rect x="102.0" y="47.4" width="6.0" height="125.3" rx="3.0"/><rect x="112.0" y="45.8" width="6.0" height="128.4" rx="3.0"/><rect x="122.0" y="29.0" width="6.0" height="162.1" rx="3.0"/><rect x="132.0" y="8.8" width="6.0" height="202.5" rx="3.0"/><rect x="142.0" y="43.3" width="6.0" height="133.3" rx="3.0"/><rect x="152.0" y="38.5" width="6.0" height="143.0" rx="3.0"/><rect x="162.0" y="18.8" width="6.0" height="182.4" rx="3.0"/><rect x="172.0" y="3.6" width="6.0" height="212.8" rx="3.0"/><rect x="182.0" y="22.5" width="6.0" height="175.1" rx="3.0"/><rect x="192.0" y="32.0" width="6.0" height="155.9" rx="3.0"/><rect x="202.0" y="5.5" width="6.0" height="209.1" rx="3.0"/><rect x="212.0" y="50.6" width="6.0" height="118.8" rx="3.0"/><rect x="222.0" y="14.3" width="6.0" height="191.4" rx="3.0"/><rect x="232.0" y="41.8" width="6.0" height="136.3" rx="3.0"/><rect x="242.0" y="49.8" width="6.0" height="120.4" rx="3.0"/><rect x="252.0" y="52.5" width="6.0" height="115.0" rx="3.0"/><rect x="262.0" y="46.2" width="6.0" height="127.6" rx="3.0"/><rect x="272.0" y="27.7" width="6.0" height="164.6" rx="3.0"/><rect x="282.0" y="55.3" width="6.0" height="109.4" rx="3.0"/><rect x="292.0" y="42.3" width="6.0" height="135.4" rx="3.0"/><rect x="302.0" y="43.0" width="6.0" height="133.9" rx="3.0"/><rect x="312.0" y="55.2" width="6.0" height="109.6" rx="3.0"/><rect x="322.0" y="52.1" width="6.0" height="115.7" rx="3.0"/><rect x="332.0" y="70.2" width="6.0" height="79.6" rx="3.0"/><rect x="342.0" y="72.6" width="6.0" height="74.8" rx="3.0"/><rect x="352.0" y="70.9" width="6.0" height="78.2" rx="3.0"/><rect x="362.0" y="61.5" width="6.0" height="97.1" rx="3.0"/><rect x="372.0" y="71.0" width="6.0" height="77.9" rx="3.0"/><rect x="382.0" y="76.7" width="6.0" height="66.7" rx="3.0"/><rect x="392.0" y="74.2" width="6.0" height="71.5" rx="3.0"/><rect x="402.0" y="80.1" width="6.0" height="59.8" rx="3.0"/><rect x="412.0" y="81.5" width="6.0" height="57.0" rx="3.0"/><rect x="422.0" y="68.3" width="6.0" height="83.4" rx="3.0"/><rect x="432.0" y="66.6" width="6.0" height="86.8" rx="3.0"/><rect x="442.0" y="74.1" width="6.0" height="71.8" rx="3.0"/><rect x="452.0" y="62.6" width="6.0" height="94.7" rx="3.0"/><rect x="462.0" y="60.7" width="6.0" height="98.6" rx="3.0"/><rect x="472.0" y="47.0" width="6.0" height="125.9" rx="3.0"/><rect x="482.0" y="48.0" width="6.0" height="124.0" rx="3.0"/><rect x="492.0" y="59.5" width="6.0" height="101.1" rx="3.0"/><rect x="502.0" y="32.7" width="6.0" height="154.7" rx="3.0"/><rect x="512.0" y="60.8" width="6.0" height="98.4" rx="3.0"/><rect x="522.0" y="47.4" width="6.0" height="125.3" rx="3.0"/><rect x="532.0" y="31.5" width="6.0" height="156.9" rx="3.0"/><rect x="542.0" y="53.6" width="6.0" height="112.7" rx="3.0"/><rect x="552.0" y="37.7" width="6.0" height="144.7" rx="3.0"/><rect x="562.0" y="55.2" width="6.0" height="109.6" rx="3.0"/><rect x="572.0" y="25.8" width="6.0" height="168.4" rx="3.0"/><rect x="582.0" y="19.6" width="6.0" height="180.8" rx="3.0"/><rect x="592.0" y="26.7" width="6.0" height="166.6" rx="3.0"/><rect x="602.0" y="11.0" width="6.0" height="197.9" rx="3.0"/><rect x="612.0" y="36.5" width="6.0" height="147.0" rx="3.0"/><rect x="622.0" y="17.2" width="6.0" height="185.6" rx="3.0"/><rect x="632.0" y="21.2" width="6.0" height="177.5" rx="3.0"/><rect x="642.0" y="21.4" width="6.0" height="177.2" rx="3.0"/><rect x="652.0" y="27.1" width="6.0" height="165.8" rx="3.0"/><rect x="662.0" y="8.0" width="6.0" height="204.1" rx="3.0"/><rect x="672.0" y="2.8" width="6.0" height="214.4" rx="3.0"/><rect x="682.0" y="26.3" width="6.0" height="167.4" rx="3.0"/><rect x="692.0" y="17.4" width="6.0" height="185.2" rx="3.0"/><rect x="702.0" y="47.5" width="6.0" height="125.0" rx="3.0"/><rect x="712.0" y="17.2" width="6.0" height="185.6" rx="3.0"/><rect x="722.0" y="20.9" width="6.0" height="178.2" rx="3.0"/><rect x="732.0" y="6.0" width="6.0" height="208.1" rx="3.0"/><rect x="742.0" y="15.7" width="6.0" height="188.7" rx="3.0"/><rect x="752.0" y="41.8" width="6.0" height="136.3" rx="3.0"/><rect x="762.0" y="38.9" width="6.0" height="142.2" rx="3.0"/><rect x="772.0" y="28.5" width="6.0" height="163.1" rx="3.0"/><rect x="782.0" y="57.9" width="6.0" height="104.3" rx="3.0"/><rect x="792.0" y="41.6" width="6.0" height="136.8" rx="3.0"/><rect x="802.0" y="55.5" width="6.0" height="109.1" rx="3.0"/><rect x="812.0" y="59.4" width="6.0" height="101.2" rx="3.0"/><rect x="822.0" y="63.5" width="6.0" height="92.9" rx="3.0"/><rect x="832.0" y="41.0" width="6.0" height="137.9" rx="3.0"/><rect x="842.0" y="65.4" width="6.0" height="89.2" rx="3.0"/><rect x="852.0" y="64.0" width="6.0" height="91.9" rx="3.0"/><rect x="862.0" y="62.4" width="6.0" height="95.2" rx="3.0"/><rect x="872.0" y="52.0" width="6.0" height="115.9" rx="3.0"/><rect x="882.0" y="76.3" width="6.0" height="67.3" rx="3.0"/><rect x="892.0" y="70.0" width="6.0" height="80.1" rx="3.0"/><rect x="902.0" y="71.0" width="6.0" height="78.1" rx="3.0"/><rect x="912.0" y="67.7" width="6.0" height="84.7" rx="3.0"/><rect x="922.0" y="72.9" width="6.0" height="74.2" rx="3.0"/><rect x="932.0" y="71.6" width="6.0" height="76.8" rx="3.0"/><rect x="942.0" y="79.5" width="6.0" height="61.0" rx="3.0"/><rect x="952.0" y="73.5" width="6.0" height="72.9" rx="3.0"/><rect x="962.0" y="71.8" width="6.0" height="76.4" rx="3.0"/><rect x="972.0" y="55.1" width="6.0" height="109.7" rx="3.0"/><rect x="982.0" y="49.2" width="6.0" height="121.6" rx="3.0"/><rect x="992.0" y="69.2" width="6.0" height="81.6" rx="3.0"/><rect x="1002.0" y="66.0" width="6.0" height="88.0" rx="3.0"/><rect x="1012.0" y="61.8" width="6.0" height="96.5" rx="3.0"/><rect x="1022.0" y="59.3" width="6.0" height="101.4" rx="3.0"/><rect x="1032.0" y="47.8" width="6.0" height="124.4" rx="3.0"/><rect x="1042.0" y="41.2" width="6.0" height="137.5" rx="3.0"/><rect x="1052.0" y="51.5" width="6.0" height="117.0" rx="3.0"/><rect x="1062.0" y="60.0" width="6.0" height="100.0" rx="3.0"/><rect x="1072.0" y="41.0" width="6.0" height="138.0" rx="3.0"/><rect x="1082.0" y="41.2" width="6.0" height="137.6" rx="3.0"/><rect x="1092.0" y="30.7" width="6.0" height="158.6" rx="3.0"/><rect x="1102.0" y="11.3" width="6.0" height="197.3" rx="3.0"/><rect x="1112.0" y="21.5" width="6.0" height="176.9" rx="3.0"/><rect x="1122.0" y="28.2" width="6.0" height="163.5" rx="3.0"/><rect x="1132.0" y="22.2" width="6.0" height="175.6" rx="3.0"/><rect x="1142.0" y="18.3" width="6.0" height="183.4" rx="3.0"/><rect x="1152.0" y="47.8" width="6.0" height="124.5" rx="3.0"/><rect x="1162.0" y="5.8" width="6.0" height="208.5" rx="3.0"/><rect x="1172.0" y="11.2" width="6.0" height="197.7" rx="3.0"/><rect x="1182.0" y="6.2" width="6.0" height="207.5" rx="3.0"/><rect x="1192.0" y="10.0" width="6.0" height="199.9" rx="3.0"/></svg>
